<svg class="main-svg" xmlns="http://www.w3.org/2000/svg" xmlns:xlink="http://www.w3.org/1999/xlink" width="1500" height="1000" style="" viewBox="0 0 1500 1000"><rect x="0" y="0" width="1500" height="1000" style="fill: rgb(255, 255, 255); fill-opacity: 1;"/><defs id="defs-a15c21"><g class="clips"><clipPath id="clipa15c21xyplot" class="plotclip"><rect width="1175" height="820"/></clipPath><clipPath class="axesclip" id="clipa15c21x"><rect x="80" y="0" width="1175" height="1000"/></clipPath><clipPath class="axesclip" id="clipa15c21y"><rect x="0" y="100" width="1500" height="820"/></clipPath><clipPath class="axesclip" id="clipa15c21xy"><rect x="80" y="100" width="1175" height="820"/></clipPath></g><g class="gradients"/><g class="patterns"/></defs><g class="bglayer"/><g class="layer-below"><g class="imagelayer"/><g class="shapelayer"/></g><g class="cartesianlayer"><g class="subplot xy"><g class="layer-subplot"><g class="shapelayer"/><g class="imagelayer"/></g><g class="minor-gridlayer"><g class="x"/><g class="y"/></g><g class="gridlayer"><g class="x"><path class="xgrid crisp" transform="translate(302.03999999999996,0)" d="M0,100v820" style="stroke: rgb(235, 240, 248); stroke-opacity: 1; stroke-width: 1px;"/><path class="xgrid crisp" transform="translate(548.52,0)" d="M0,100v820" style="stroke: rgb(235, 240, 248); stroke-opacity: 1; stroke-width: 1px;"/><path class="xgrid crisp" transform="translate(794.99,0)" d="M0,100v820" style="stroke: rgb(235, 240, 248); stroke-opacity: 1; stroke-width: 1px;"/><path class="xgrid crisp" transform="translate(1041.46,0)" d="M0,100v820" style="stroke: rgb(235, 240, 248); stroke-opacity: 1; stroke-width: 1px;"/></g><g class="y"><path class="ygrid crisp" transform="translate(0,741.48)" d="M80,0h1175" style="stroke: rgb(235, 240, 248); stroke-opacity: 1; stroke-width: 1px;"/><path class="ygrid crisp" transform="translate(0,611.88)" d="M80,0h1175" style="stroke: rgb(235, 240, 248); stroke-opacity: 1; stroke-width: 1px;"/><path class="ygrid crisp" transform="translate(0,482.28)" d="M80,0h1175" style="stroke: rgb(235, 240, 248); stroke-opacity: 1; stroke-width: 1px;"/><path class="ygrid crisp" transform="translate(0,352.68)" d="M80,0h1175" style="stroke: rgb(235, 240, 248); stroke-opacity: 1; stroke-width: 1px;"/><path class="ygrid crisp" transform="translate(0,223.07999999999998)" d="M80,0h1175" style="stroke: rgb(235, 240, 248); stroke-opacity: 1; stroke-width: 1px;"/></g></g><g class="zerolinelayer"><path class="yzl zl crisp" transform="translate(0,871.09)" d="M80,0h1175" style="stroke: rgb(235, 240, 248); stroke-opacity: 1; stroke-width: 2px;"/></g><path class="xlines-below"/><path class="ylines-below"/><g class="overlines-below"/><g class="xaxislayer-below"/><g class="yaxislayer-below"/><g class="overaxes-below"/><g class="plot" transform="translate(80,100)" clip-path="url(#clipa15c21xyplot)"><g class="scatterlayer mlayer"><g class="trace scatter trace22dc36" style="stroke-miterlimit: 2; opacity: 1;"><g class="fills"/><g class="errorbars"/><g class="lines"><path class="js-line" d="M0,303.48L4.18,334.33L8.37,342.88L16.6,340.81L20.65,343.14L24.84,351.44L29.02,369.58L32.8,377.1L36.98,372.17L41.03,355.84L45.22,345.22L49.27,323.18L53.45,289.75L57.64,278.6L61.69,277.05L78.29,277.3L82.07,279.38L86.25,285.86L90.3,294.67L94.49,294.93L98.54,301.93L102.72,300.11L106.9,308.67L110.95,307.37L115.14,263.31L123.37,174.14L127.56,121.52L135.52,88.86L139.57,88.86L143.75,89.12L147.8,94.83L151.99,113.75L156.17,161.96L160.22,226.24L164.41,264.6L172.64,332.77L176.82,348.07L180.74,348.59L184.92,351.44L193.16,362.32L197.21,361.55L201.39,362.32L205.57,359.99L209.62,354.03L213.81,345.73L222.04,317.48L226.23,306.34L234.19,279.38L238.24,270.31L242.42,262.79L246.47,259.16L250.66,259.94L254.84,259.16L258.89,262.79L263.08,272.12L267.13,281.97L271.31,298.3L275.49,313.59L279.27,323.18L295.74,377.62L299.93,382.8L304.11,391.09L308.16,403.8L312.34,409.5L316.39,417.27L320.58,429.2L324.76,430.75L332.73,440.86L336.77,445.01L340.96,448.9L345.01,459.27L353.38,474.82L357.43,480.26L361.61,481.3L365.66,481.3L382.13,481.3L386.18,476.37L390.36,469.63L394.41,457.71L398.6,450.71L402.78,436.2L406.83,424.01L411.01,417.02L415.06,417.53L419.25,417.02L423.43,425.83L427.21,442.94L431.4,467.82L435.45,483.11L439.63,507.74L443.68,523.81L447.86,537.54L452.05,546.88L480.66,546.88L484.71,545.06L492.95,513.44L497.13,503.59L501.32,494.78L505.36,494.78L517.78,494.78L521.97,489.85L525.75,481.56L529.93,469.89L533.98,466.78L538.16,462.12L546.4,453.56L550.58,449.16L554.63,462.38L558.82,467.82L562.87,475.59L567.05,488.55L571.23,493.74L575.15,501.52L583.38,528.73L587.57,541.17L591.62,553.61L595.8,561.91L599.99,567.61L604.04,579.54L608.22,583.68L612.27,586.02L616.45,585.5L620.64,586.79L628.6,585.76L632.65,582.9L636.84,578.76L640.88,566.32L645.07,557.76L649.25,552.06L653.3,540.4L657.49,531.32L661.54,526.14L665.72,514.48L677.87,495.04L681.92,489.33L690.15,488.55L694.34,488.55L706.75,488.04L710.8,482.07L714.99,470.93L719.17,464.71L727.14,445.01L731.19,442.42L739.42,419.09L743.6,416.24L747.79,404.31L751.84,404.31L801.24,404.31L805.43,406.91L809.47,410.79L813.66,417.27L821.62,438.79L825.81,456.15L829.86,470.67L834.04,482.07L838.09,508L842.27,511.62L850.51,554.65L854.69,563.46L858.74,579.28L862.93,589.64L867.11,592.24L870.89,596.9L875.07,600.53L879.12,605.2L940.81,605.2L944.99,618.16L949.04,623.08L953.23,631.63L957.28,644.08L961.46,652.11L969.56,662.48L973.74,668.7" style="vector-effect: none; fill: none; stroke: rgb(0, 0, 255); stroke-opacity: 1; stroke-width: 2px; opacity: 1;"/></g><g class="points"/><g class="text"/></g><g class="trace scatter trace50d923" style="stroke-miterlimit: 2; opacity: 1;"><g class="fills"/><g class="errorbars"/><g class="lines"><path class="js-line" d="M994.4,721.84L1015.05,721.84L1018.83,713.28L1023.01,702.4L1027.06,685.81L1035.3,663.52L1039.48,641.23L1043.66,630.34L1047.71,607.79L1055.95,544.02L1060.13,533.92L1064.32,499.18L1068.1,482.07L1072.28,469.11L1076.33,446.82L1080.51,436.97L1084.56,430.23L1088.75,419.09L1092.93,417.27L1133.83,417.27L1138.02,429.2L1142.2,434.9L1146.25,443.19L1150.43,455.64L1154.48,463.41L1158.67,469.11L1162.85,482.07L1166.77,485.96L1170.95,495.04L1175,499.7" style="vector-effect: none; fill: none; stroke: rgb(255, 165, 0); stroke-opacity: 1; stroke-width: 2px; opacity: 1;"/></g><g class="points"/><g class="text"/></g><g class="trace scatter trace331dbf" style="stroke-miterlimit: 2; opacity: 1;"><g class="fills"/><g class="errorbars"/><g class="lines"><path class="js-line" d="M0,306.55L4.18,343.46L8.37,348.33L12.42,345.65L16.6,344.64L20.65,345.98L24.84,353.98L29.02,378.16L32.8,380.48L36.98,376.7L41.03,364.87L45.22,348.25L49.27,324.49L53.45,295.59L57.64,281.51L65.87,278.54L69.92,281.01L74.1,280.27L78.29,281.92L86.25,292.23L90.3,300.47L94.49,300.05L98.54,305.65L102.72,306.2L106.9,313.21L110.95,311.32L115.14,265.04L123.37,175.98L127.56,123.88L135.52,91.65L139.57,91.44L143.75,91.48L147.8,97.08L151.99,115.9L156.17,165.65L160.22,230.66L164.41,266.9L172.64,335.3L176.82,346.93L184.92,350.68L188.97,359.93L197.21,363.29L201.39,362.5L205.57,360.44L209.62,355.29L213.81,350.13L217.86,331.64L226.23,309.67L230.01,295.54L238.24,273.65L242.42,268.27L246.47,264.97L250.66,263.3L254.84,262.45L258.89,267.29L267.13,287.54L271.31,306.06L275.49,320.49L279.27,330.66L287.51,356.55L291.69,365.91L295.74,378.64L299.93,384.08L304.11,392.54L308.16,405.52L312.34,411.41L316.39,419.36L320.58,432.6L324.76,433.99L336.77,445.91L340.96,447.58L345.01,459.11L349.19,468.31L357.43,480.76L361.61,481.59L365.66,481.57L369.84,479.39L374.03,479.05L377.94,480.44L382.13,481.18L386.18,478.77L394.41,457.03L398.6,447.95L402.78,435.79L406.83,417L411.01,413.95L415.06,415.02L419.25,416.18L423.43,426.13L431.4,467L435.45,481.91L439.63,505.67L443.68,522.62L452.05,542.24L456.1,544.37L460.28,548.34L464.33,545.51L468.52,544.62L472.7,540.23L476.48,543.64L480.66,543.98L484.71,540.6L488.9,523.77L492.95,513.07L497.13,504.77L501.32,496.03L505.36,494.65L509.55,494.97L513.6,493.94L517.78,494.37L521.97,488.49L529.93,467.14L533.98,466.31L542.21,458.29L546.4,448.07L550.58,444.69L554.63,461.5L562.87,474.75L567.05,487.05L571.23,485.26L575.15,499.15L579.33,514.06L583.38,522.93L591.62,551.28L595.8,555.78L608.22,580.07L612.27,579.95L616.45,579.2L620.64,581.69L624.42,580.3L628.6,583.1L632.65,578.15L636.84,571.26L645.07,553.62L649.25,549.38L653.3,537.13L657.49,528.06L661.54,521.43L665.72,511.39L673.68,501.14L677.87,489.54L686.1,483.05L690.15,484.7L694.34,483.82L698.52,489.24L702.57,485.94L706.75,487.43L710.8,478.71L714.99,475.42L727.14,446.55L731.19,444.04L735.37,428.2L739.42,419.78L743.6,412.3L747.79,400.66L751.84,402.73L756.02,397.35L760.07,403.83L764.26,404.44L768.44,405.06L772.35,403.69L776.54,404.68L780.59,406.65L784.77,403.95L788.82,402.74L793.01,409.11L797.19,410L801.24,406.15L805.43,405.01L809.47,408.85L813.66,416.64L821.62,439.23L825.81,455.85L834.04,482.03L838.09,507.65L842.27,512.56L846.46,535.13L850.51,554.87L854.69,563.07L858.74,582.26L862.93,589.95L875.07,599.9L879.12,604.22L883.31,603.35L887.36,603.74L891.54,602L895.73,602.58L903.96,602.22L908.01,600.75L916.38,601.88L920.16,603.51L924.34,603.83L928.39,595.8L932.58,603.25L936.63,603.52L940.81,603.38L944.99,613.98L953.23,629.01L957.28,641.31L965.65,654.7L969.56,659.36L973.74,666.01" style="vector-effect: none; fill: none; stroke: rgb(0, 204, 150); stroke-opacity: 1; stroke-dasharray: 9px, 9px; stroke-width: 2px; opacity: 1;"/></g><g class="points"/><g class="text"/></g><g class="trace scatter trace23d9d1" style="stroke-miterlimit: 2; opacity: 1;"><g class="fills"/><g class="errorbars"/><g class="lines"><path class="js-line" d="M0,303.54L4.18,334.37L8.37,342.93L16.6,340.81L20.65,343.14L24.84,351.45L29.02,369.59L32.8,377.14L36.98,372.17L41.03,355.94L45.22,345.23L49.27,323.17L53.45,289.75L57.64,278.61L61.69,277.07L78.29,277.32L82.07,279.45L86.25,285.88L90.3,294.69L94.49,294.98L98.54,301.96L102.72,300.14L106.9,308.65L110.95,307.37L115.14,263.33L123.37,174.14L127.56,121.52L135.52,88.86L139.57,88.88L143.75,89.12L147.8,94.82L151.99,113.76L156.17,161.98L160.22,226.24L164.41,264.62L172.64,332.78L176.82,348.01L180.74,348.6L184.92,351.45L193.16,362.31L197.21,361.57L201.39,362.32L205.57,359.99L209.62,354.03L213.81,345.76L222.04,317.5L226.23,306.36L234.19,279.44L238.24,270.3L242.42,262.84L246.47,259.21L250.66,259.95L254.84,259.17L258.89,262.85L263.08,272.15L267.13,282.01L271.31,298.4L275.49,313.67L279.27,323.22L295.74,377.61L299.93,382.8L304.11,391.11L308.16,403.85L312.34,409.49L316.39,417.27L320.58,429.21L324.76,430.8L332.73,440.87L336.77,445L340.96,448.86L345.01,459.26L353.38,474.82L357.43,480.26L361.61,481.3L365.66,481.29L382.13,481.29L386.18,476.38L390.36,469.61L394.41,457.71L398.6,450.71L402.78,436.21L406.83,424.01L411.01,416.99L415.06,417.48L419.25,416.99L423.43,425.84L427.21,442.93L431.4,467.83L435.45,483.11L439.63,507.74L443.68,523.82L447.86,537.55L452.05,546.86L480.66,546.84L484.71,545.05L492.95,513.44L497.13,503.62L501.32,494.79L505.36,494.77L517.78,494.77L521.97,489.84L525.75,481.56L529.93,469.88L533.98,466.77L538.16,462.13L546.4,453.55L550.58,449.13L554.63,462.37L558.82,467.82L562.87,475.63L567.05,488.56L571.23,493.66L575.15,501.49L583.38,528.7L587.57,541.14L591.62,553.57L595.8,561.84L599.99,567.54L604.04,579.46L608.22,583.65L612.27,585.94L616.45,585.47L620.64,586.74L628.6,585.74L632.65,582.88L636.84,578.74L640.88,566.31L645.07,557.73L649.25,552.06L653.3,540.41L657.49,531.33L661.54,526.13L665.72,514.47L677.87,494.98L681.92,489.33L686.1,488.48L690.15,488.55L706.75,488.05L710.8,482.06L714.99,470.93L719.17,464.76L727.14,445.03L731.19,442.41L739.42,419.09L743.6,416.2L747.79,404.28L751.84,404.27L801.24,404.3L805.43,406.91L809.47,410.8L813.66,417.27L821.62,438.78L825.81,456.15L829.86,470.67L834.04,482.09L838.09,508L842.27,511.64L850.51,554.66L854.69,563.46L858.74,579.32L862.93,589.67L867.11,592.3L870.89,596.92L875.07,600.55L879.12,605.21L940.81,605.17L944.99,618.13L949.04,623.05L953.23,631.64L957.28,644.06L961.46,652.1L969.56,662.45L973.74,668.7" style="vector-effect: none; fill: none; stroke: rgb(171, 99, 250); stroke-opacity: 1; stroke-dasharray: 9px, 9px; stroke-width: 2px; opacity: 1;"/></g><g class="points"/><g class="text"/></g><g class="trace scatter tracefcd1e8" style="stroke-miterlimit: 2; opacity: 1;"><g class="fills"/><g class="errorbars"/><g class="lines"><path class="js-line" d="M0,343.97L4.18,366.25L8.37,364.84L16.6,353.14L20.65,336.79L29.02,394L32.8,392.61L36.98,377.6L41.03,372.48L45.22,375.97L49.27,343.35L53.45,306.92L57.64,288.15L61.69,297.79L65.87,283.46L69.92,284.92L74.1,283.44L78.29,317.57L82.07,317.35L86.25,318.82L90.3,321.21L94.49,330.63L98.54,317.85L102.72,319.4L106.9,304.98L110.95,316.98L115.14,261.93L119.19,214.94L123.37,181.19L127.56,127.85L131.34,112.61L135.52,82.94L139.57,84.65L143.75,80.3L147.8,96.78L151.99,118.7L156.17,169.5L160.22,232.38L164.41,277.66L172.64,342.61L176.82,347.73L180.74,354.07L184.92,349.64L188.97,365.15L193.16,358.14L197.21,365.52L201.39,358.38L205.57,348.33L209.62,360.81L217.86,339.88L222.04,338.72L226.23,318.63L230.01,308.39L234.19,301.9L238.24,285.64L242.42,296.32L246.47,284.59L254.84,264.95L258.89,295.45L263.08,306.34L267.13,307.1L271.31,344.7L275.49,343.2L279.27,334.14L283.46,366.24L287.51,384.12L291.69,381.1L295.74,376.88L299.93,396.52L304.11,425.41L308.16,428.15L312.34,426.62L316.39,440.06L320.58,459.77L324.76,449.56L328.54,438.67L332.73,436.17L340.96,451L345.01,471.21L349.19,471.81L353.38,483.22L357.43,499.52L361.61,491.75L365.66,492.57L369.84,464.21L374.03,483.41L377.94,488.72L382.13,460.23L386.18,472.46L390.36,454.69L394.41,449.21L402.78,435.11L406.83,409.87L411.01,409.35L415.06,383.04L419.25,391.27L423.43,415.46L427.21,449.23L431.4,477.23L435.45,484.49L439.63,495.86L443.68,519.83L447.86,532.93L452.05,538.67L456.1,537.34L460.28,554.62L464.33,532.38L468.52,538.24L472.7,540.52L476.48,532.07L480.66,532.02L484.71,531.7L488.9,521.5L492.95,518.18L497.13,519.69L501.32,500.07L505.36,490.02L509.55,487.11L513.6,498.88L517.78,507.29L521.97,470.22L525.75,475.73L529.93,455.63L533.98,449.44L538.16,457.58L542.21,453.92L546.4,434.53L550.58,445.86L554.63,461.29L558.82,465.86L562.87,487.58L567.05,476.13L571.23,448.35L575.15,474.37L579.33,508.44L583.38,514.75L587.57,517.21L591.62,537.13L595.8,541.85L599.99,531.93L604.04,542.41L608.22,551.22L612.27,539.58L616.45,555.17L620.64,545.01L624.42,548.8L628.6,554.24L632.65,557.88L636.84,560.01L640.88,544.73L645.07,535.91L649.25,548.28L653.3,523.9L657.49,543.07L661.54,522.09L665.72,503.83L669.91,494.98L673.68,505.35L677.87,467.5L681.92,484.26L686.1,474.82L690.15,475.89L694.34,465.27L698.52,493.75L702.57,468.74L706.75,481.93L710.8,486.95L714.99,463.42L719.17,480.53L727.14,455.67L731.19,444.17L735.37,425.46L739.42,419.46L747.79,391.18L751.84,388.67L756.02,379.04L760.07,404.43L764.26,414.57L768.44,403.23L772.35,392.38L776.54,412.86L780.59,416.74L784.77,394.51L788.82,379.42L793.01,423.42L797.19,409.46L801.24,406.06L805.43,411.19L809.47,403.19L813.66,409.46L817.84,421.78L821.62,443.14L825.81,453.87L829.86,475.56L834.04,489.26L842.27,524.15L846.46,548.43L854.69,554.93L858.74,583.76L862.93,586.09L867.11,599.62L870.89,601.05L875.07,605.82L879.12,593.92L883.31,611.89L891.54,581.85L895.73,593.85L899.78,589.34L903.96,578.55L908.01,589.33L912.19,598.09L916.38,589L920.16,616.61L924.34,617.46L928.39,584.52L932.58,589.14L936.63,588.39L940.81,585.04L944.99,588.2L949.04,618.18L953.23,617.02L957.28,634.65L961.46,638.72L965.65,652.15L969.56,641.9L973.74,665.85" style="vector-effect: none; fill: none; stroke: rgb(255, 161, 90); stroke-opacity: 1; stroke-dasharray: 9px, 9px; stroke-width: 2px; opacity: 1;"/></g><g class="points"/><g class="text"/></g><g class="trace scatter trace4caead" style="stroke-miterlimit: 2; opacity: 1;"><g class="fills"/><g class="errorbars"/><g class="lines"><path class="js-line" d="M0,498.75L4.18,457.67L8.37,429.7L12.42,447.09L16.6,444.98L20.65,452.29L24.84,490.8L29.02,538.32L32.8,538.88L36.98,519.92L41.03,480.74L45.22,445.43L49.27,434.11L53.45,381.91L57.64,357.42L65.87,342.55L69.92,336.25L74.1,371.41L78.29,434.85L82.07,436.64L86.25,417.5L90.3,397.91L94.49,411.4L98.54,424.21L102.72,388.73L106.9,378.49L110.95,362.73L115.14,329.79L119.19,220.33L127.56,117.66L131.34,98.24L135.52,41L139.57,68.05L143.75,125.57L147.8,216.42L151.99,237.28L156.17,302.5L160.22,330.43L164.41,373.08L168.45,394.55L172.64,401.16L176.82,414.12L180.74,450.65L184.92,425.86L188.97,391.91L193.16,370.77L197.21,381.19L201.39,344.78L205.57,354.93L209.62,359.08L213.81,367.72L217.86,374.6L222.04,389.82L226.23,414.02L230.01,417.91L234.19,404.67L238.24,366.2L242.42,354.86L246.47,381.17L250.66,369.69L254.84,387.81L258.89,421.75L263.08,441.84L267.13,441.23L271.31,460.24L275.49,462.07L279.27,473.74L283.46,483.33L287.51,467.54L291.69,451.02L295.74,499.8L299.93,498.03L304.11,514.84L308.16,517.81L312.34,528.79L320.58,522.21L324.76,532.62L328.54,542.42L332.73,534.73L336.77,505.14L340.96,498.47L345.01,509.81L349.19,498.71L353.38,485.6L357.43,478.21L365.66,485.52L369.84,467.69L374.03,504.53L377.94,513.3L382.13,496.53L386.18,452.6L390.36,423.08L394.41,414.9L398.6,388.71L402.78,380.34L406.83,378.84L411.01,397.27L415.06,420L419.25,438.97L427.21,498.39L431.4,505.38L439.63,452.63L443.68,466.95L447.86,463.28L452.05,462.03L456.1,465.28L460.28,500.16L468.52,504.62L472.7,514.74L476.48,519.4L480.66,495.25L488.9,427.1L492.95,446.22L497.13,444.37L501.32,452.66L505.36,446.43L509.55,459.94L513.6,451.75L517.78,427.73L521.97,423.3L525.75,423.68L529.93,409.37L533.98,381.79L538.16,371.76L542.21,384.49L546.4,381.57L550.58,393.39L554.63,394.49L558.82,408.68L562.87,425.47L567.05,425.95L571.23,447.96L575.15,475.82L579.33,489.76L583.38,454.78L587.57,451.67L591.62,479.56L599.99,437.38L604.04,442.9L608.22,440.95L612.27,418L616.45,415.82L620.64,430.87L624.42,433.85L628.6,429.17L632.65,408.35L636.84,404.46L640.88,435.69L645.07,444.13L649.25,438.6L653.3,438.06L661.54,435.68L665.72,410.91L669.91,440.47L673.68,439.71L677.87,419.11L681.92,388.98L686.1,386.63L690.15,379.52L694.34,394.19L698.52,412.43L702.57,402.41L706.75,427.38L710.8,455.61L714.99,434.99L719.17,448.4L722.95,454.19L727.14,405.49L731.19,345.13L735.37,322.83L739.42,325.47L743.6,314.94L747.79,348.42L751.84,350.58L756.02,354.68L760.07,371.17L764.26,377.83L768.44,375.03L772.35,379.31L776.54,378.08L780.59,358.86L784.77,344.74L788.82,386.22L793.01,390.49L797.19,384.98L801.24,407.28L805.43,444.95L809.47,458.9L813.66,481.91L817.84,525.18L821.62,537.06L825.81,534.75L829.86,517.44L834.04,514.12L838.09,531.78L842.27,524.08L846.46,529.08L850.51,527.41L854.69,530.36L858.74,542.25L862.93,538.34L867.11,576.94L870.89,591.55L875.07,593.34L879.12,569.41L883.31,573.89L887.36,550.29L891.54,525.35L895.73,521.43L899.78,492.84L903.96,488.09L908.01,534.78L912.19,549.79L916.38,570.02L920.16,603.86L924.34,585.03L928.39,529.13L932.58,528.77L936.63,541.64L940.81,520.71L944.99,528.52L949.04,549.72L953.23,554.4L957.28,557.96L961.46,546.86L965.65,597.92L969.56,601.52L973.74,585.65" style="vector-effect: none; fill: none; stroke: rgb(25, 211, 243); stroke-opacity: 1; stroke-dasharray: 9px, 9px; stroke-width: 2px; opacity: 1;"/></g><g class="points"/><g class="text"/></g><g class="trace scatter trace8f1aa1" style="stroke-miterlimit: 2; opacity: 1;"><g class="fills"/><g class="errorbars"/><g class="lines"><path class="js-line" d="M4.18,495.57L8.37,463.22L12.42,447.44L16.6,531.9L20.65,422.69L24.84,381.19L29.02,479.58L32.8,545.11L36.98,526.5L41.03,490.81L45.22,499.18L49.27,473.72L53.45,412.68L61.69,282.71L65.87,335.66L69.92,275.06L74.1,272.78L78.29,326.73L82.07,419.2L86.25,419.91L90.3,410.46L94.49,430.83L98.54,435.76L102.72,417.37L106.9,360.92L110.95,329.79L115.14,336.2L119.19,292.5L123.37,186.62L127.56,107.14L131.34,103.99L135.52,100.65L139.57,78.16L143.75,81.18L147.8,99.31L151.99,184.53L156.17,206.26L160.22,270.39L164.41,273.1L168.45,308.51L172.64,338.58L176.82,366.85L180.74,408.47L184.92,436.67L188.97,417.56L193.16,428.46L197.21,378.79L201.39,367.52L205.57,312.35L209.62,300.98L213.81,348.51L217.86,330.83L222.04,353.88L230.01,412.39L234.19,413.75L238.24,402.69L242.42,394.36L246.47,357.93L250.66,400.91L254.84,367.61L258.89,380.03L263.08,415.83L267.13,435.51L271.31,419.46L275.49,469.53L279.27,471.71L283.46,462.07L287.51,452.43L291.69,464.11L295.74,430.38L299.93,446.48L308.16,517.95L312.34,528.21L316.39,545.68L320.58,522.59L324.76,519.98L328.54,513.12L332.73,524.45L336.77,503.47L345.01,539.79L349.19,491.23L353.38,517.09L357.43,519.81L361.61,516.48L365.66,514.83L374.03,475.13L377.94,484.79L382.13,474.72L386.18,453.63L390.36,475.44L394.41,461.05L398.6,428.4L402.78,436.71L406.83,395.45L411.01,378.21L415.06,378.84L419.25,397.13L423.43,420.32L427.21,474.03L431.4,467.48L435.45,454.11L439.63,478.53L443.68,492.45L447.86,480.91L452.05,528.25L456.1,520.91L460.28,509.38L464.33,527.94L468.52,514.92L472.7,505.81L476.48,484.12L480.66,476.3L484.71,450.97L488.9,471.93L492.95,455.3L497.13,455.68L501.32,499.1L505.36,496.39L509.55,455.73L513.6,492.22L517.78,488.31L525.75,417.96L529.93,410.26L533.98,400.77L538.16,417.37L542.21,399.99L546.4,403L550.58,400.57L554.63,409.2L558.82,397.48L562.87,418.02L567.05,461.55L571.23,458.9L579.33,449.32L583.38,444.7L587.57,461.66L591.62,481.24L595.8,486.69L599.99,501.3L604.04,473.85L608.22,517.2L612.27,527.21L616.45,462.06L620.64,449.25L624.42,427.08L628.6,420.46L632.65,416.21L636.84,435.25L640.88,431.06L645.07,459.61L649.25,515.26L653.3,493.86L657.49,489.81L661.54,494.39L665.72,482.11L669.91,435.29L673.68,429.1L681.92,413.11L686.1,430.33L690.15,425.19L694.34,393.98L698.52,457.35L702.57,456.11L706.75,416.74L710.8,445.36L714.99,497.37L719.17,460.76L722.95,441.81L727.14,429.36L731.19,404.13L735.37,387.4L739.42,334.79L743.6,337.86L747.79,319.75L751.84,341.74L756.02,330.67L760.07,308.55L764.26,396.26L768.44,397.79L772.35,364.59L776.54,380.24L780.59,375.46L784.77,384.6L788.82,335.73L793.01,405.2L797.19,424.51L801.24,397.39L805.43,409.55L809.47,440.91L813.66,440.26L817.84,494.15L821.62,519.34L825.81,509.68L829.86,479.47L834.04,497.53L838.09,528.93L842.27,510.5L846.46,551.51L850.51,565.67L854.69,565.2L858.74,571.04L862.93,585.57L867.11,555.24L870.89,553.19L875.07,583.15L879.12,569.18L883.31,577.3L887.36,601.47L891.54,541.54L895.73,590.78L899.78,624.4L903.96,563.74L908.01,493.3L912.19,554.43L916.38,574.74L920.16,544.7L924.34,581.83L928.39,550.51L932.58,528.59L936.63,575.47L940.81,551L944.99,562.07L949.04,568.34L953.23,581.45L957.28,562.39L961.46,592.22L965.65,546.52L969.56,509.9L973.74,529.17" style="vector-effect: none; fill: none; stroke: rgb(255, 102, 146); stroke-opacity: 1; stroke-dasharray: 9px, 9px; stroke-width: 2px; opacity: 1;"/></g><g class="points"/><g class="text"/></g><g class="trace scatter tracebad656" style="stroke-miterlimit: 2; opacity: 1;"><g class="fills"/><g class="errorbars"/><g class="lines"><path class="js-line" d="M0,779L4.18,301.38L8.37,347L12.42,342.67L16.6,342.24L20.65,341.9L24.84,347.15L29.02,355.83L32.8,376.74L36.98,375.94L41.03,367.24L45.22,345.99L49.27,343.63L53.45,304.59L57.64,276.02L61.69,280.91L65.87,275.48L69.92,278.34L74.1,278.12L78.29,278.41L82.07,274.49L86.25,283.01L90.3,289.03L94.49,302.49L98.54,291.92L102.72,307.97L106.9,293.99L110.95,318.3L115.14,296.07L119.19,226.66L123.37,203.82L127.56,139.49L131.34,102.81L135.52,103.77L139.57,86.54L143.75,101.66L147.8,93.01L151.99,103.14L156.17,131.46L164.41,258.15L168.45,271.5L172.64,312.72L176.82,344.1L180.74,352.15L184.92,343.72L188.97,355.47L193.16,358.92L197.21,366.48L201.39,356.82L205.57,368L209.62,356.55L213.81,354.42L217.86,340.44L226.23,310.8L230.01,301.24L238.24,272.94L242.42,269.24L246.47,261.73L250.66,260.04L254.84,264.1L258.89,262.07L263.08,266.55L267.13,275.26L271.31,286.52L275.49,302.64L279.27,320.3L283.46,327.38L287.51,345.38L291.69,356.99L295.74,376L299.93,382.1L304.11,386.41L308.16,396.57L312.34,410.43L316.39,407.84L320.58,421.16L324.76,431.36L328.54,428.92L332.73,441.02L336.77,440.24L340.96,449.92L345.01,449.97L349.19,467.67L353.38,465.97L357.43,482.04L361.61,479.53L365.66,482.2L369.84,476.23L374.03,484.13L377.94,477.64L382.13,483.1L386.18,477.38L390.36,474.2L394.41,465.05L398.6,451.99L402.78,450.13L406.83,428.14L411.01,424.37L415.06,414.72L419.25,419.85L423.43,414.02L427.21,434.84L431.4,450.7L435.45,479.48L439.63,485.09L443.68,525.57L447.86,525.01L452.05,547.69L456.1,548.73L460.28,550.41L464.33,544.16L468.52,546.33L472.7,543.68L476.48,546.53L480.66,544.76L484.71,547.57L488.9,541.51L492.95,519.83L497.13,511.88L501.32,500.4L505.36,492.67L509.55,498.02L513.6,489.69L517.78,492.25L521.97,490.99L525.75,486.06L529.93,477.92L533.98,463.98L538.16,469.95L542.21,458.76L546.4,459.72L550.58,452.07L554.63,449.62L558.82,473.35L562.87,464.61L567.05,481.07L571.23,492.34L575.15,495.35L579.33,508.91L587.57,535.81L591.62,548.8L595.8,557.39L599.99,563.52L604.04,572.6L608.22,583.85L612.27,579.98L616.45,587.27L620.64,580.73L624.42,588.9L628.6,585.64L632.65,586.34L640.88,579.94L645.07,560.59L649.25,556.64L653.3,550.54L657.49,533.13L661.54,528.79L669.91,509.68L673.68,503.43L681.92,491.89L686.1,489.51L690.15,487.65L694.34,493.82L698.52,488.86L702.57,489.53L706.75,491.06L710.8,488.59L714.99,472.5L719.17,465.86L722.95,461.13L727.14,447.5L731.19,438.6L735.37,445.25L739.42,420.57L743.6,420.05L747.79,418.84L751.84,396.6L756.02,411.34L760.07,400.65L764.26,404.61L768.44,398.67L772.35,405.91L776.54,404.7L784.77,405.01L788.82,409.08L793.01,404.74L797.19,404.87L801.24,408.75L805.43,406.66L809.47,408.55L813.66,413L817.84,420.94L821.62,434.87L825.81,442.66L829.86,466.68L834.04,475.65L838.09,489.17L842.27,523.49L846.46,504.75L850.51,556.16L854.69,554.15L858.74,570.71L862.93,582.32L867.11,594.76L870.89,590.07L875.07,603.27L879.12,598.68L883.31,612.8L887.36,596.83L891.54,609.82L895.73,601.8L899.78,606.39L903.96,604.97L908.01,610.43L912.19,601L916.38,605.7L920.16,605.93L924.34,603.52L928.39,602.09L932.58,609.38L936.63,604.39L940.81,606.39L944.99,606.58L949.04,630.56L953.23,618.87L957.28,640.63L961.46,642.31L965.65,658.51L969.56,653.39L973.74,669.41" style="vector-effect: none; fill: none; stroke: rgb(182, 232, 128); stroke-opacity: 1; stroke-dasharray: 9px, 9px; stroke-width: 2px; opacity: 1;"/></g><g class="points"/><g class="text"/></g><g class="trace scatter trace6a60fd" style="stroke-miterlimit: 2; opacity: 1;"><g class="fills"/><g class="errorbars"/><g class="lines"><path class="js-line" d="M994.4,619.74L998.45,624.43L1002.63,588.23L1006.68,514.79L1010.86,402.9L1015.05,473.32L1018.83,605.03L1027.06,599.65L1031.25,606.18L1035.3,494.63L1039.48,491.52L1043.66,492.42L1047.71,518.99L1051.9,422.2L1055.95,471.04L1060.13,515.58L1064.32,422.44L1068.1,425.15L1072.28,389.32L1076.33,447.48L1080.51,416.8L1084.56,421.41L1088.75,431.57L1092.93,428.27L1096.98,492.08L1101.17,597.88L1105.22,393.97L1109.4,443.27L1113.58,468.41L1117.36,494.15L1121.55,487.21L1129.78,402.56L1133.83,399.6L1138.02,393.4L1142.2,620.3L1146.25,626L1150.43,636.64L1154.48,600.83L1158.67,610.9L1162.85,607.13L1166.77,598.38L1170.95,603.68L1175,602.74" style="vector-effect: none; fill: none; stroke: rgb(255, 151, 255); stroke-opacity: 1; stroke-dasharray: 9px, 9px; stroke-width: 2px; opacity: 1;"/></g><g class="points"/><g class="text"/></g><g class="trace scatter tracec9e717" style="stroke-miterlimit: 2; opacity: 1;"><g class="fills"/><g class="errorbars"/><g class="lines"><path class="js-line" d="M994.4,601.16L998.45,600.13L1002.63,617.27L1006.68,596L1010.86,406.76L1015.05,466.31L1018.83,616.26L1023.01,607.59L1027.06,619.03L1031.25,576.8L1035.3,545.74L1039.48,475.79L1043.66,467.77L1047.71,515.95L1051.9,475.11L1055.95,487.53L1060.13,538.17L1064.32,424.07L1068.1,458.22L1072.28,383.09L1076.33,434.49L1080.51,445.94L1084.56,434.28L1088.75,405.95L1092.93,440.14L1101.17,556.16L1105.22,410.76L1109.4,423.82L1113.58,492.54L1117.36,450.51L1121.55,500.28L1125.6,496.32L1129.78,410.19L1138.02,398.03L1142.2,611.13L1146.25,611.02L1150.43,629.8L1154.48,585.05L1158.67,625.31L1162.85,620.17L1166.77,601.08L1170.95,603.12L1175,601.12" style="vector-effect: none; fill: none; stroke: rgb(254, 203, 82); stroke-opacity: 1; stroke-dasharray: 9px, 9px; stroke-width: 2px; opacity: 1;"/></g><g class="points"/><g class="text"/></g><g class="trace scatter trace44cb39" style="stroke-miterlimit: 2; opacity: 1;"><g class="fills"/><g class="errorbars"/><g class="lines"><path class="js-line" d="M994.4,556.51L998.45,580.19L1002.63,595.95L1006.68,551.35L1010.86,534.53L1015.05,492.21L1018.83,540.83L1023.01,593.57L1027.06,584.12L1031.25,589.82L1035.3,527.51L1039.48,462.77L1043.66,485.24L1047.71,504.84L1051.9,482.9L1055.95,488.08L1060.13,446.48L1064.32,422.09L1068.1,430.86L1072.28,350.35L1076.33,467.69L1080.51,466.01L1084.56,427.16L1088.75,370.39L1092.93,384.05L1096.98,476.23L1101.17,515.08L1105.22,458.67L1109.4,466.45L1113.58,471.45L1117.36,483.11L1121.55,506.1L1125.6,502.16L1129.78,415.21L1133.83,527.25L1138.02,476.6L1142.2,598.14L1146.25,580.64L1150.43,619.32L1154.48,549.24L1158.67,587.36L1162.85,588.28L1166.77,590.1L1170.95,556.18L1175,602.44" style="vector-effect: none; fill: none; stroke: rgb(99, 110, 250); stroke-opacity: 1; stroke-dasharray: 9px, 9px; stroke-width: 2px; opacity: 1;"/></g><g class="points"/><g class="text"/></g><g class="trace scatter traceaad5e2" style="stroke-miterlimit: 2; opacity: 1;"><g class="fills"/><g class="errorbars"/><g class="lines"><path class="js-line" d="M994.4,603.8L998.45,566.26L1002.63,564.97L1006.68,543.93L1010.86,559.64L1018.83,571.6L1023.01,568.79L1027.06,572.73L1031.25,557.13L1035.3,515.84L1039.48,490.7L1043.66,457.13L1047.71,435.82L1051.9,446.64L1055.95,432.33L1060.13,445.38L1064.32,441.79L1068.1,433.06L1072.28,374.56L1076.33,373.58L1080.51,370.74L1084.56,388.01L1088.75,410.36L1092.93,439.6L1096.98,461.97L1101.17,514.71L1105.22,494.96L1109.4,548.1L1113.58,529.54L1117.36,535.93L1121.55,483.15L1125.6,493.89L1129.78,509.4L1133.83,527.8L1138.02,518.56L1142.2,542.97L1146.25,560.72L1150.43,561.99L1154.48,548.4L1158.67,579.08L1162.85,580.35L1166.77,579.93L1170.95,545.22L1175,549.4" style="vector-effect: none; fill: none; stroke: rgb(239, 85, 59); stroke-opacity: 1; stroke-dasharray: 9px, 9px; stroke-width: 2px; opacity: 1;"/></g><g class="points"/><g class="text"/></g><g class="trace scatter tracea449f7" style="stroke-miterlimit: 2; opacity: 1;"><g class="fills"/><g class="errorbars"/><g class="lines"><path class="js-line" d="M998.45,613.71L1002.63,617.9L1006.68,619.69L1010.86,527.19L1015.05,513.99L1023.01,540.64L1027.06,597.2L1031.25,637.55L1035.3,593.46L1039.48,606.04L1043.66,579.57L1047.71,570.96L1051.9,544.86L1055.95,520.88L1060.13,465.49L1064.32,440.8L1068.1,428.76L1072.28,422.07L1076.33,413.33L1080.51,416.17L1084.56,406.99L1088.75,456.49L1092.93,448.28L1096.98,448.76L1101.17,444.45L1105.22,530.49L1109.4,502.9L1113.58,511.55L1117.36,493.97L1121.55,481.35L1125.6,485.55L1129.78,535.35L1133.83,493.83L1138.02,550.94L1142.2,518.41L1146.25,547.99L1150.43,567.28L1154.48,601.54L1158.67,556.42L1162.85,543.45L1166.77,561.45L1170.95,556L1175,547.31" style="vector-effect: none; fill: none; stroke: rgb(0, 204, 150); stroke-opacity: 1; stroke-dasharray: 9px, 9px; stroke-width: 2px; opacity: 1;"/></g><g class="points"/><g class="text"/></g><g class="trace scatter trace473ce4" style="stroke-miterlimit: 2; opacity: 1;"><g class="fills"/><g class="errorbars"/><g class="lines"><path class="js-line" d="M994.4,779L998.45,301.38L1002.63,347L1006.68,342.67L1010.86,342.24L1015.05,341.9L1018.83,347.15L1023.01,355.83L1027.06,376.74L1031.25,375.94L1035.3,367.24L1039.48,345.99L1043.66,343.63L1047.71,304.59L1051.9,276.02L1055.95,280.91L1060.13,275.48L1064.32,278.34L1068.1,278.12L1072.28,278.41L1076.33,274.49L1080.51,283.01L1084.56,289.03L1088.75,302.49L1092.93,291.92L1096.98,307.97L1101.17,293.99L1105.22,318.3L1109.4,296.07L1113.58,226.66L1117.36,203.82L1121.55,139.49L1125.6,102.81L1129.78,103.77L1133.83,86.54L1138.02,101.66L1142.2,93.01L1146.25,103.14L1150.43,131.46L1158.67,258.15L1162.85,271.5L1166.77,312.72L1170.95,344.1L1175,352.15" style="vector-effect: none; fill: none; stroke: rgb(171, 99, 250); stroke-opacity: 1; stroke-dasharray: 9px, 9px; stroke-width: 2px; opacity: 1;"/></g><g class="points"/><g class="text"/></g></g></g><g class="overplot"/><path class="xlines-above crisp" d="M0,0" style="fill: none;"/><path class="ylines-above crisp" d="M0,0" style="fill: none;"/><g class="overlines-above"/><g class="xaxislayer-above"><g class="xtick"><text text-anchor="middle" x="0" y="933" transform="translate(302.03999999999996,0)" style="font-family: 'Open Sans', verdana, arial, sans-serif; font-size: 12px; fill: rgb(42, 63, 95); fill-opacity: 1; white-space: pre; opacity: 1;">2005</text></g><g class="xtick"><text text-anchor="middle" x="0" y="933" style="font-family: 'Open Sans', verdana, arial, sans-serif; font-size: 12px; fill: rgb(42, 63, 95); fill-opacity: 1; white-space: pre; opacity: 1;" transform="translate(548.52,0)">2010</text></g><g class="xtick"><text text-anchor="middle" x="0" y="933" style="font-family: 'Open Sans', verdana, arial, sans-serif; font-size: 12px; fill: rgb(42, 63, 95); fill-opacity: 1; white-space: pre; opacity: 1;" transform="translate(794.99,0)">2015</text></g><g class="xtick"><text text-anchor="middle" x="0" y="933" style="font-family: 'Open Sans', verdana, arial, sans-serif; font-size: 12px; fill: rgb(42, 63, 95); fill-opacity: 1; white-space: pre; opacity: 1;" transform="translate(1041.46,0)">2020</text></g></g><g class="yaxislayer-above"><g class="ytick"><text text-anchor="end" x="79" y="4.199999999999999" transform="translate(0,871.09)" style="font-family: 'Open Sans', verdana, arial, sans-serif; font-size: 12px; fill: rgb(42, 63, 95); fill-opacity: 1; white-space: pre; opacity: 1;">0</text></g><g class="ytick"><text text-anchor="end" x="79" y="4.199999999999999" style="font-family: 'Open Sans', verdana, arial, sans-serif; font-size: 12px; fill: rgb(42, 63, 95); fill-opacity: 1; white-space: pre; opacity: 1;" transform="translate(0,741.48)">5</text></g><g class="ytick"><text text-anchor="end" x="79" y="4.199999999999999" style="font-family: 'Open Sans', verdana, arial, sans-serif; font-size: 12px; fill: rgb(42, 63, 95); fill-opacity: 1; white-space: pre; opacity: 1;" transform="translate(0,611.88)">10</text></g><g class="ytick"><text text-anchor="end" x="79" y="4.199999999999999" style="font-family: 'Open Sans', verdana, arial, sans-serif; font-size: 12px; fill: rgb(42, 63, 95); fill-opacity: 1; white-space: pre; opacity: 1;" transform="translate(0,482.28)">15</text></g><g class="ytick"><text text-anchor="end" x="79" y="4.199999999999999" style="font-family: 'Open Sans', verdana, arial, sans-serif; font-size: 12px; fill: rgb(42, 63, 95); fill-opacity: 1; white-space: pre; opacity: 1;" transform="translate(0,352.68)">20</text></g><g class="ytick"><text text-anchor="end" x="79" y="4.199999999999999" style="font-family: 'Open Sans', verdana, arial, sans-serif; font-size: 12px; fill: rgb(42, 63, 95); fill-opacity: 1; white-space: pre; opacity: 1;" transform="translate(0,223.07999999999998)">25</text></g></g><g class="overaxes-above"/></g></g><g class="polarlayer"/><g class="smithlayer"/><g class="ternarylayer"/><g class="geolayer"/><g class="funnelarealayer"/><g class="pielayer"/><g class="iciclelayer"/><g class="treemaplayer"/><g class="sunburstlayer"/><g class="glimages"/><defs id="topdefs-a15c21"><g class="clips"/><clipPath id="legenda15c21"><rect width="210" height="276" x="0" y="0"/></clipPath></defs><g class="layer-above"><g class="imagelayer"/><g class="shapelayer"/></g><g class="infolayer"><g class="legend" pointer-events="all" transform="translate(1278.5,100)"><rect class="bg" shape-rendering="crispEdges" style="stroke: rgb(68, 68, 68); stroke-opacity: 1; fill: rgb(255, 255, 255); fill-opacity: 1; stroke-width: 0px;" width="210" height="276" x="0" y="0"/><g class="scrollbox" transform="" clip-path="url(#legenda15c21)"><g class="groups"><g class="traces" transform="translate(0,14.5)" style="opacity: 1;"><text class="legendtext" text-anchor="start" x="40" y="4.680000000000001" style="font-family: 'Open Sans', verdana, arial, sans-serif; font-size: 12px; fill: rgb(42, 63, 95); fill-opacity: 1; white-space: pre;">Dados de Treino</text><g class="layers" style="opacity: 1;"><g class="legendfill"/><g class="legendlines"><path class="js-line" d="M5,0h30" style="fill: none; stroke: rgb(0, 0, 255); stroke-opacity: 1; stroke-width: 2px;"/></g><g class="legendsymbols"><g class="legendpoints"/></g></g><rect class="legendtoggle" x="0" y="-9.5" width="204.828125" height="19" style="fill: rgb(0, 0, 0); fill-opacity: 0;"/></g><g class="traces" transform="translate(0,33.5)" style="opacity: 1;"><text class="legendtext" text-anchor="start" x="40" y="4.680000000000001" style="font-family: 'Open Sans', verdana, arial, sans-serif; font-size: 12px; fill: rgb(42, 63, 95); fill-opacity: 1; white-space: pre;">Dados de Teste</text><g class="layers" style="opacity: 1;"><g class="legendfill"/><g class="legendlines"><path class="js-line" d="M5,0h30" style="fill: none; stroke: rgb(255, 165, 0); stroke-opacity: 1; stroke-width: 2px;"/></g><g class="legendsymbols"><g class="legendpoints"/></g></g><rect class="legendtoggle" x="0" y="-9.5" width="204.828125" height="19" style="fill: rgb(0, 0, 0); fill-opacity: 0;"/></g><g class="traces" transform="translate(0,52.5)" style="opacity: 1;"><text class="legendtext" text-anchor="start" x="40" y="4.680000000000001" style="font-family: 'Open Sans', verdana, arial, sans-serif; font-size: 12px; fill: rgb(42, 63, 95); fill-opacity: 1; white-space: pre;">gradiente_boosting (Treino)</text><g class="layers" style="opacity: 1;"><g class="legendfill"/><g class="legendlines"><path class="js-line" d="M5,0h30" style="fill: none; stroke: rgb(0, 204, 150); stroke-opacity: 1; stroke-dasharray: 9px, 9px; stroke-width: 2px;"/></g><g class="legendsymbols"><g class="legendpoints"/></g></g><rect class="legendtoggle" x="0" y="-9.5" width="204.828125" height="19" style="fill: rgb(0, 0, 0); fill-opacity: 0;"/></g><g class="traces" transform="translate(0,71.5)" style="opacity: 1;"><text class="legendtext" text-anchor="start" x="40" y="4.680000000000001" style="font-family: 'Open Sans', verdana, arial, sans-serif; font-size: 12px; fill: rgb(42, 63, 95); fill-opacity: 1; white-space: pre;">xg_boost (Treino)</text><g class="layers" style="opacity: 1;"><g class="legendfill"/><g class="legendlines"><path class="js-line" d="M5,0h30" style="fill: none; stroke: rgb(171, 99, 250); stroke-opacity: 1; stroke-dasharray: 9px, 9px; stroke-width: 2px;"/></g><g class="legendsymbols"><g class="legendpoints"/></g></g><rect class="legendtoggle" x="0" y="-9.5" width="204.828125" height="19" style="fill: rgb(0, 0, 0); fill-opacity: 0;"/></g><g class="traces" transform="translate(0,90.5)" style="opacity: 1;"><text class="legendtext" text-anchor="start" x="40" y="4.680000000000001" style="font-family: 'Open Sans', verdana, arial, sans-serif; font-size: 12px; fill: rgb(42, 63, 95); fill-opacity: 1; white-space: pre;">cat_boost (Treino)</text><g class="layers" style="opacity: 1;"><g class="legendfill"/><g class="legendlines"><path class="js-line" d="M5,0h30" style="fill: none; stroke: rgb(255, 161, 90); stroke-opacity: 1; stroke-dasharray: 9px, 9px; stroke-width: 2px;"/></g><g class="legendsymbols"><g class="legendpoints"/></g></g><rect class="legendtoggle" x="0" y="-9.5" width="204.828125" height="19" style="fill: rgb(0, 0, 0); fill-opacity: 0;"/></g><g class="traces" transform="translate(0,109.5)" style="opacity: 1;"><text class="legendtext" text-anchor="start" x="40" y="4.680000000000001" style="font-family: 'Open Sans', verdana, arial, sans-serif; font-size: 12px; fill: rgb(42, 63, 95); fill-opacity: 1; white-space: pre;">regressao_linear (Treino)</text><g class="layers" style="opacity: 1;"><g class="legendfill"/><g class="legendlines"><path class="js-line" d="M5,0h30" style="fill: none; stroke: rgb(25, 211, 243); stroke-opacity: 1; stroke-dasharray: 9px, 9px; stroke-width: 2px;"/></g><g class="legendsymbols"><g class="legendpoints"/></g></g><rect class="legendtoggle" x="0" y="-9.5" width="204.828125" height="19" style="fill: rgb(0, 0, 0); fill-opacity: 0;"/></g><g class="traces" transform="translate(0,128.5)" style="opacity: 1;"><text class="legendtext" text-anchor="start" x="40" y="4.680000000000001" style="font-family: 'Open Sans', verdana, arial, sans-serif; font-size: 12px; fill: rgb(42, 63, 95); fill-opacity: 1; white-space: pre;">redes_neurais (Treino)</text><g class="layers" style="opacity: 1;"><g class="legendfill"/><g class="legendlines"><path class="js-line" d="M5,0h30" style="fill: none; stroke: rgb(255, 102, 146); stroke-opacity: 1; stroke-dasharray: 9px, 9px; stroke-width: 2px;"/></g><g class="legendsymbols"><g class="legendpoints"/></g></g><rect class="legendtoggle" x="0" y="-9.5" width="204.828125" height="19" style="fill: rgb(0, 0, 0); fill-opacity: 0;"/></g><g class="traces" transform="translate(0,147.5)" style="opacity: 1;"><text class="legendtext" text-anchor="start" x="40" y="4.680000000000001" style="font-family: 'Open Sans', verdana, arial, sans-serif; font-size: 12px; fill: rgb(42, 63, 95); fill-opacity: 1; white-space: pre;">sarimax (Treino)</text><g class="layers" style="opacity: 1;"><g class="legendfill"/><g class="legendlines"><path class="js-line" d="M5,0h30" style="fill: none; stroke: rgb(182, 232, 128); stroke-opacity: 1; stroke-dasharray: 9px, 9px; stroke-width: 2px;"/></g><g class="legendsymbols"><g class="legendpoints"/></g></g><rect class="legendtoggle" x="0" y="-9.5" width="204.828125" height="19" style="fill: rgb(0, 0, 0); fill-opacity: 0;"/></g><g class="traces" transform="translate(0,166.5)" style="opacity: 1;"><text class="legendtext" text-anchor="start" x="40" y="4.680000000000001" style="font-family: 'Open Sans', verdana, arial, sans-serif; font-size: 12px; fill: rgb(42, 63, 95); fill-opacity: 1; white-space: pre;">gradiente_boosting (Teste)</text><g class="layers" style="opacity: 1;"><g class="legendfill"/><g class="legendlines"><path class="js-line" d="M5,0h30" style="fill: none; stroke: rgb(255, 151, 255); stroke-opacity: 1; stroke-dasharray: 9px, 9px; stroke-width: 2px;"/></g><g class="legendsymbols"><g class="legendpoints"/></g></g><rect class="legendtoggle" x="0" y="-9.5" width="204.828125" height="19" style="fill: rgb(0, 0, 0); fill-opacity: 0;"/></g><g class="traces" transform="translate(0,185.5)" style="opacity: 1;"><text class="legendtext" text-anchor="start" x="40" y="4.680000000000001" style="font-family: 'Open Sans', verdana, arial, sans-serif; font-size: 12px; fill: rgb(42, 63, 95); fill-opacity: 1; white-space: pre;">xg_boost (Teste)</text><g class="layers" style="opacity: 1;"><g class="legendfill"/><g class="legendlines"><path class="js-line" d="M5,0h30" style="fill: none; stroke: rgb(254, 203, 82); stroke-opacity: 1; stroke-dasharray: 9px, 9px; stroke-width: 2px;"/></g><g class="legendsymbols"><g class="legendpoints"/></g></g><rect class="legendtoggle" x="0" y="-9.5" width="204.828125" height="19" style="fill: rgb(0, 0, 0); fill-opacity: 0;"/></g><g class="traces" transform="translate(0,204.5)" style="opacity: 1;"><text class="legendtext" text-anchor="start" x="40" y="4.680000000000001" style="font-family: 'Open Sans', verdana, arial, sans-serif; font-size: 12px; fill: rgb(42, 63, 95); fill-opacity: 1; white-space: pre;">cat_boost (Teste)</text><g class="layers" style="opacity: 1;"><g class="legendfill"/><g class="legendlines"><path class="js-line" d="M5,0h30" style="fill: none; stroke: rgb(99, 110, 250); stroke-opacity: 1; stroke-dasharray: 9px, 9px; stroke-width: 2px;"/></g><g class="legendsymbols"><g class="legendpoints"/></g></g><rect class="legendtoggle" x="0" y="-9.5" width="204.828125" height="19" style="fill: rgb(0, 0, 0); fill-opacity: 0;"/></g><g class="traces" transform="translate(0,223.5)" style="opacity: 1;"><text class="legendtext" text-anchor="start" x="40" y="4.680000000000001" style="font-family: 'Open Sans', verdana, arial, sans-serif; font-size: 12px; fill: rgb(42, 63, 95); fill-opacity: 1; white-space: pre;">regressao_linear (Teste)</text><g class="layers" style="opacity: 1;"><g class="legendfill"/><g class="legendlines"><path class="js-line" d="M5,0h30" style="fill: none; stroke: rgb(239, 85, 59); stroke-opacity: 1; stroke-dasharray: 9px, 9px; stroke-width: 2px;"/></g><g class="legendsymbols"><g class="legendpoints"/></g></g><rect class="legendtoggle" x="0" y="-9.5" width="204.828125" height="19" style="fill: rgb(0, 0, 0); fill-opacity: 0;"/></g><g class="traces" transform="translate(0,242.5)" style="opacity: 1;"><text class="legendtext" text-anchor="start" x="40" y="4.680000000000001" style="font-family: 'Open Sans', verdana, arial, sans-serif; font-size: 12px; fill: rgb(42, 63, 95); fill-opacity: 1; white-space: pre;">redes_neurais (Teste)</text><g class="layers" style="opacity: 1;"><g class="legendfill"/><g class="legendlines"><path class="js-line" d="M5,0h30" style="fill: none; stroke: rgb(0, 204, 150); stroke-opacity: 1; stroke-dasharray: 9px, 9px; stroke-width: 2px;"/></g><g class="legendsymbols"><g class="legendpoints"/></g></g><rect class="legendtoggle" x="0" y="-9.5" width="204.828125" height="19" style="fill: rgb(0, 0, 0); fill-opacity: 0;"/></g><g class="traces" transform="translate(0,261.5)" style="opacity: 1;"><text class="legendtext" text-anchor="start" x="40" y="4.680000000000001" style="font-family: 'Open Sans', verdana, arial, sans-serif; font-size: 12px; fill: rgb(42, 63, 95); fill-opacity: 1; white-space: pre;">sarimax (Teste)</text><g class="layers" style="opacity: 1;"><g class="legendfill"/><g class="legendlines"><path class="js-line" d="M5,0h30" style="fill: none; stroke: rgb(171, 99, 250); stroke-opacity: 1; stroke-dasharray: 9px, 9px; stroke-width: 2px;"/></g><g class="legendsymbols"><g class="legendpoints"/></g></g><rect class="legendtoggle" x="0" y="-9.5" width="204.828125" height="19" style="fill: rgb(0, 0, 0); fill-opacity: 0;"/></g></g></g><rect class="scrollbar" rx="20" ry="3" width="0" height="0" style="fill: rgb(128, 139, 164); fill-opacity: 1;" x="0" y="0"/></g><g class="g-gtitle"><text class="gtitle" x="75" y="50" text-anchor="start" dy="0em" style="font-family: 'Open Sans', verdana, arial, sans-serif; font-size: 17px; fill: rgb(42, 63, 95); opacity: 1; font-weight: normal; white-space: pre;">Predições</text></g><g class="g-xtitle"><text class="xtitle" x="667.5" y="960.3" text-anchor="middle" style="font-family: 'Open Sans', verdana, arial, sans-serif; font-size: 14px; fill: rgb(42, 63, 95); opacity: 1; font-weight: normal; white-space: pre;">Tempo</text></g><g class="g-ytitle"><text class="ytitle" transform="rotate(-90,39.41875,510)" x="39.41875" y="510" text-anchor="middle" style="font-family: 'Open Sans', verdana, arial, sans-serif; font-size: 14px; fill: rgb(42, 63, 95); opacity: 1; font-weight: normal; white-space: pre;">Valores</text></g></g></svg>